<svg width="384" height="384" viewBox="0 0 384 384" fill="none" xmlns="http://www.w3.org/2000/svg">
<path fill-rule="evenodd" clip-rule="evenodd" d="M354.656 93.255C358.3 99.3272 352.928 110.625 349.311 115.917C346.088 123.803 339.466 128.953 333.22 134.328C334.409 135.27 335.255 136.652 335.512 138.571C336.192 144.974 330.546 146.432 325.466 147.034C323.886 147.474 322.673 148.578 321.302 149.348C321.071 150.026 320.728 150.671 320.27 151.257C319.323 152.486 317.973 153.36 316.477 153.738C314.696 155.655 312.08 157.644 312.163 160.483C312.155 161.384 312.009 162.195 311.757 162.916C315.457 170.751 319.776 178.259 325.408 184.915C326.868 186.852 327.151 188.88 326.67 190.663C330.8 198.694 336.386 206.248 338.32 215.106C339.748 221.804 333.596 240.004 325.413 242.2C324.106 245.711 322.416 249.096 320.366 252.309C315.331 260.125 307.773 266.083 301.063 272.131C300.575 272.682 300.033 273.17 299.459 273.586C300.328 279.978 298.094 288.154 295.953 293.024C291.646 303.078 284.295 311.362 276.021 318.371C275.837 318.525 275.646 318.681 275.452 318.842C274.888 320.071 273.961 321.137 272.717 321.822C271.294 322.613 269.851 323.36 268.385 324.071C268.302 324.111 268.219 324.151 268.136 324.192C268.06 324.229 267.982 324.265 267.906 324.297C257.203 329.402 245.451 332.324 233.561 332.163C220.2 332.054 205.895 331.251 194.79 322.955C192.775 321.278 189.965 319.902 188.388 317.782C186.97 318.449 185.552 319.109 184.129 319.754C168.194 327.101 150.464 329.944 133.008 329.791C129.048 330.39 126.175 329.221 124.465 327.337C120.558 326.849 115.524 326.901 112.519 324.763C95.0126 319.3 90.6832 302.63 92.3907 284.741C92.2522 284.696 92.1087 284.64 91.9702 284.585C81.9362 280.698 72.7284 275.203 65.9107 266.791C62.3998 263.777 57.0806 263.49 54.5091 259.21C49.5174 251.446 46.3465 242.595 44.2662 233.645C41.9869 228.007 39.8864 222.185 40.5337 215.994C41.531 200.075 50.3082 186.097 56.3829 171.69C58.7882 166.394 62.3368 160.987 61.818 154.947C52.4313 157.574 41.667 154.179 42.5611 142.78C37.9899 142.384 33.4389 139.153 34.197 134.086C34.4489 129.905 39.2417 128.996 40.3624 125.329C34.4967 120.538 29.0062 114.685 26.0998 107.598C23.9288 103.244 24.9513 98.5918 25.1604 94.0508C24.8808 89.7944 26.2333 83.7776 29.0062 80.3197C29.7316 76.9423 30.3914 73.4918 32.3861 70.6031C37.2469 64.0674 44.78 59.6146 52.4313 57.1011C59.4254 52.3964 68.8448 53.6179 76.6649 55.3154C86.3135 58.0632 96.0049 62.1684 103.727 68.6587C107.568 72.7212 110.534 77.5845 114.836 81.2289C118.151 84.6692 122.535 86.1148 126.457 87.3918C128.353 85.6288 131.348 84.9563 134.151 85.0344C143.366 82.269 152.315 78.6499 161.598 76.0583C171.008 73.9603 187.094 56.4639 193.264 71.0967C198.367 67.9183 207.937 67.2005 209.136 74.9073C213.652 70.4494 221.517 72.9655 222.467 79.282C222.673 80.229 222.829 81.1734 222.945 82.1204C228.687 82.1103 234.425 82.7198 240.018 84.0748C247.587 85.533 255.364 86.2937 262.534 89.2958C263.567 89.8473 264.748 90.2629 265.982 90.6357C267.214 87.5404 268.919 84.5433 269.758 82.4227C274.168 73.9376 279.663 65.5533 287.186 59.5214C310.334 41.8109 358.011 62.0324 354.656 93.255Z" fill="#292524"/>
<path fill-rule="evenodd" clip-rule="evenodd" d="M348.476 71.3988C347.934 69.9255 347.385 68.4546 346.75 67.014C346.516 66.5002 346.257 65.9865 345.763 65.6691C343.975 64.5433 342.041 67.5555 344.134 68.5176C349.624 80.8787 350.573 95.8465 344.327 108.117C341.235 114.632 336.522 120.667 330.012 124.047C327.818 125.256 325.31 125.583 323 126.407C320.608 128.059 324.083 130.258 322.378 132.33C320.169 135.28 313.485 136.111 309.962 136.529C305.72 137.216 308.914 142.815 309.118 145.505C309.569 147.704 309.989 149.907 310.345 152.126C310.433 153.458 311.115 154.743 312.47 155.123C317.679 156.69 323.575 152.267 323.401 146.797C327.629 145.86 332.213 144.943 335.558 141.994C338.275 139.297 334.911 136.201 333.032 134.174C342.182 129.003 348.941 120.125 353.812 110.968C361.27 97.1058 356.391 83.6692 348.476 71.3988ZM330.46 191.65C334.895 200.442 336.459 210.353 336.427 220.122C336.306 226.59 333.85 234.302 329.815 239.397C328.551 240.973 326.987 242.293 325.856 243.98C324.947 245.356 324.093 246.761 323.182 248.136C321.313 250.964 319.278 253.677 317.258 256.397C315.578 258.669 313.883 260.953 311.75 262.824C309.612 264.766 307.161 266.323 304.685 267.798C300.197 270.548 295.367 272.768 290.118 273.561C282.084 275.11 273.826 273.138 265.809 274.812C259.059 276.37 253.045 279.111 246.582 281.338C244.084 282.235 241.391 282.849 238.752 282.203C234.599 281.092 230.68 279.223 226.625 277.802C220.48 275.448 214.08 274.208 207.527 273.876C197.81 273.092 188.144 274.647 178.76 277.074C174.922 277.976 171.031 278.58 167.132 279.124C164.716 279.529 162.198 279.666 159.888 278.693C150.459 275.025 133.27 270.473 123.81 274.87C118.808 277.432 114.904 281.607 110.91 285.466C107.371 289.073 104.485 290.309 99.4128 289C91.2149 287.605 88.1498 284.597 81.7955 279.815C78.6498 277.631 75.5092 275.417 72.7891 272.702C70.875 270.816 69.2052 268.695 67.2534 266.849C64.3343 264.423 60.3676 263.748 57.6349 261.044C50.1397 254.818 49.9911 250.34 49.3892 241.086C49.296 240.348 49.3565 239.536 49.019 238.863C47.6489 237.863 46.5432 236.546 45.6794 235.093C40.0781 225.998 38.7206 219.273 40.9823 208.731C42.0174 204.409 43.0148 199.996 45.0271 196.007C46.9689 192.207 49.4673 188.736 51.8423 185.223C53.0436 183.462 54.0989 181.608 55.066 179.709C55.3254 179.223 55.8568 178.969 56.3832 178.974C57.9649 175.496 59.7203 172.081 61.1937 168.59C62.6746 165.175 63.8734 161.601 64.2034 157.874C64.3419 156.513 64.2436 155.116 64.3041 153.743C61.1534 155.561 57.237 156.166 53.6909 155.604C51.5627 155.287 49.6058 154.325 48.0418 152.935C47.5733 153.26 46.9336 153.33 46.3241 152.879C45.6441 152.355 45.012 151.801 44.4579 151.144C43.3044 149.993 43.1809 146.288 44.3571 144.744C44.3571 144.737 44.3571 144.734 44.3571 144.727C44.279 144.052 44.4327 143.321 44.264 142.674C43.0097 141.858 41.5162 141.478 40.2418 140.692C32.8347 135.461 35.4515 131.9 40.5717 126.349C36.8946 122.934 32.8624 119.773 30.4522 115.257C28.7547 112.607 27.7246 109.623 26.8506 106.618C25.347 102.12 24.9793 97.3777 25.3647 92.6706C25.6543 87.9986 26.7851 83.3821 28.6287 79.083C29.2307 77.6877 29.8855 76.3025 30.6184 74.9651C30.903 74.3733 31.3185 73.7461 32.0212 73.6882C33.3057 70.1824 34.7438 66.1779 38.0582 64.1303C39.8464 63.4352 40.9974 65.9613 39.3024 66.8579C36.333 69.4469 35.2299 73.5371 34.1091 77.1084C31.9809 84.1956 32.3814 91.6002 34.696 98.564C37.0634 105.074 41.9871 110.311 47.5607 114.255C48.888 115.146 50.2354 115.992 51.6534 116.733C52.7867 117.355 54.6606 117.594 54.6505 119.231C54.5926 120.481 53.701 121.511 53.1922 122.609C51.9682 125.052 51.2328 127.822 51.8171 130.545C52.3158 133.708 54.8419 136.08 57.7458 137.179C58.728 137.456 59.7908 137.72 60.35 138.664C61.0501 139.851 60.9444 141.327 61.443 142.596C62.0979 144.326 63.0775 145.915 64.2537 147.338C65.1705 148.469 67.2458 149.522 67.0745 151.033C67.4623 151.436 67.6286 152.048 67.417 152.59C67.3843 152.766 67.3641 152.945 67.3465 153.126C67.4825 158.533 66.5456 163.863 64.352 168.824C62.2389 173.816 59.7078 178.629 57.6728 183.656C56.0861 187.361 54.9376 191.34 55.2726 195.408C55.5143 198.74 55.882 201.097 59.6725 201.681C60.5565 201.835 61.4456 201.918 62.3422 201.873C64.2512 201.565 66.6313 201.266 66.4096 203.953C64.7272 208.661 63.9162 213.692 65.0244 218.642C65.717 221.741 66.8781 225.214 70.0213 226.58C72.8068 227.615 75.7938 226.343 78.4962 225.569C79.3021 225.316 80.2113 225.061 81.0575 225.3C83.2688 226.172 84.4349 228.564 85.9184 230.295C88.714 234.315 92.3105 237.613 96.4006 240.283C101.027 243.585 106.147 246.01 111.391 248.151C119.73 252.203 128.867 253.903 137.851 255.891C143.324 256.987 148.87 257.636 154.393 258.394C159.891 259.195 165.384 260.041 170.93 260.482C181.213 261.504 191.126 262.316 201.382 261.93C211.849 261.716 222.422 261.653 232.733 259.686C247.033 256.93 261.482 252.71 273.274 243.867C277.18 240.782 280.82 237.371 284.547 234.08C285.862 232.894 287.212 231.71 288.395 230.382C289.224 229.484 289.708 228.133 290.964 227.753C291.73 227.542 292.422 227.892 293.118 228.159C296.832 229.376 300.968 228.086 304.061 225.913C308.274 222.855 310.879 217.989 311.951 212.962C312.138 212.027 312.264 211.091 312.344 210.141C312.38 208.522 312.281 206.691 313.682 205.575C318.955 200.634 320.61 193.141 318.789 186.273C317.794 181.042 316.263 175.914 313.926 171.121C313.1 169.487 312.254 167.867 311.468 166.215C311.231 165.643 311.337 165.137 311.621 164.767C311.624 164.757 311.626 164.749 311.629 164.739C311.79 164.077 312.42 163.591 313.105 163.598C313.888 163.598 314.548 164.223 314.603 164.996C314.692 165.203 314.79 165.407 314.888 165.611C316.228 168.154 317.575 170.693 318.983 173.199C322.494 179.548 327.083 185.235 330.46 191.65Z" fill="#1C1917"/>
<path fill-rule="evenodd" clip-rule="evenodd" d="M193.804 146.472C199.113 147.066 204.684 148.408 198.312 153.634C196.03 155.599 193.544 157.321 190.945 158.833C190.059 159.331 188.976 160.155 188.069 159.215C187.759 158.906 187.606 158.488 187.621 158.072C184.447 158.08 171.142 155.828 174.078 150.803C175.33 149.506 177.204 149.038 178.823 148.348C183.619 146.577 188.734 145.671 193.804 146.472Z" fill="#B37A36"/>
<path fill-rule="evenodd" clip-rule="evenodd" d="M91.6673 105.885C96.8051 108.955 93.74 110.35 90.5213 113.076C87.0583 116.395 83.6633 119.813 80.5126 123.432C81.4847 124.595 80.3463 126.129 78.941 125.895C78.4977 127.217 76.4426 127.129 76.1026 125.759C76.0849 125.694 76.0698 125.626 76.0572 125.558C70.058 124.092 62.3361 115.513 60.9131 109.537C59.6312 104.417 61.5805 97.9214 67.0861 96.3271C71.9243 95.3399 76.3342 98.5334 80.6107 100.312C84.3508 102.067 88.3201 103.389 91.6673 105.885Z" fill="#F6AA93"/>
<path fill-rule="evenodd" clip-rule="evenodd" d="M318.298 94.1209C323.577 98.9842 321.059 107.61 317.137 112.552C313.095 116.914 306.554 120.107 300.595 120.332C297.775 119.896 297.329 116.171 296.246 114.02C295.442 112.073 294.644 110.104 293.491 108.331C292.44 106.741 290.906 105.817 289.675 104.465C288.426 103.22 290.075 101.19 291.544 102.148C294.047 100.516 296.659 98.9187 299.087 97.264C301.701 95.4859 304.29 93.5718 307.307 92.5141C310.916 91.2094 315.274 91.6829 318.298 94.1209Z" fill="#F6AA93"/>
<path fill-rule="evenodd" clip-rule="evenodd" d="M91.8707 194.652C82.0761 171.406 118.21 166.429 124.99 185.948C130.563 205.386 98.7162 210.915 91.8707 194.652Z" fill="#FCD8DB"/>
<path fill-rule="evenodd" clip-rule="evenodd" d="M261.063 203.234C250.085 200.613 246.745 185.841 255.046 178.419C262.582 170.69 277.107 169.161 284.31 178.074C295.527 192.903 274.976 206.66 261.063 203.234Z" fill="#FCD8DB"/>
<path fill-rule="evenodd" clip-rule="evenodd" d="M113.898 287.105C114.686 285.523 115.442 283.819 116.658 283.031C126.979 273.188 143.728 274.261 156.159 279.217C156.613 279.385 157.056 279.572 157.502 279.763C153.019 281.035 148.428 282.398 143.685 283.798C136.497 286.008 129.087 287.158 121.572 287.289C119.318 287.349 116.81 287.352 114.281 287.239C114.152 287.188 114.027 287.146 113.898 287.105ZM233.383 334.044C223.405 333.471 213.396 331.644 204.146 327.772C201.242 326.178 191.621 322.909 190.626 319.453C175.797 327.48 160.056 332.94 142.008 331.712C132.226 331.802 122.438 331.011 113.135 327.808C110.208 326.306 102.61 327.044 103.144 322.632C103.378 318.081 119.663 325.46 123.096 325.511C139.285 327.956 156.477 327.722 172.15 322.79C195.429 314.905 215.429 296.381 237.144 283.816C236.912 283.751 236.69 283.688 236.474 283.644C213.487 273.425 187.629 275.716 164.123 282.955C147.543 288.042 130.626 293.412 113.062 291.978C112.621 291.966 112.246 291.852 111.936 291.668C94.1375 290.982 77.0793 284.256 68.3474 270.808C67.889 270.941 67.3652 270.919 66.8061 270.672C53.3822 265.99 47.0329 255.772 46.31 244.111C46.232 244.043 46.1564 243.972 46.0859 243.894C31.6369 228.357 36.795 205.119 45.4714 187.975C51.0349 178.029 57.7947 168.579 60.5147 157.452C57.636 158.51 53.435 158.581 51.5285 158.621C44.3984 158.261 37.1475 150.894 40.5652 143.656C31.2843 141.558 26.8114 133.113 36.3769 127.444C21.6282 117.052 19.359 97.0121 24.4817 80.8254C34.7725 46.9911 74.3416 41.959 100.348 61.7271C107.395 66.6963 111.591 74.6297 118.353 79.8457C120.62 82.1955 126.151 81.6238 127.068 84.7443C131.342 83.3339 135.374 82.193 138.016 81.2838C148.936 78.0147 159.623 73.9371 169.82 68.8244C176.812 65.0315 191.51 56.4659 194.782 67.8044C201.31 63.6866 210.122 62.6414 210.064 70.4413C213.55 68.1243 218.247 67.1168 221.224 69.2123C224.077 71.1465 224.745 74.6524 225.981 77.5261C233.87 79.2059 242.198 78.9088 250.029 81.3417C252.008 81.8504 258.317 83.9232 264.022 86.5224C264.349 82.6589 268.724 76.9014 269.933 74.5365C278.337 61.6566 292.089 51.5219 307.684 50.1166C328.114 48.6432 350.534 61.2738 358.342 80.4904C366.056 99.9715 356.322 124.835 337.649 134.249C344.734 142.747 334.574 149.988 326.124 149.35C325.971 154.33 320.49 158.538 315.514 158.86C323.173 178.289 339.05 194.503 341.112 215.966C341.969 225.252 338.722 234.558 332.489 241.458C330.801 242.968 328.844 246.728 326.469 247.04C323.936 254.782 319.143 261.723 311.398 267.427C309.807 268.397 306.157 271.989 302.916 274.046C303.896 274.251 304.717 274.85 304.865 276.031C304.973 279.975 299.934 278.731 297.456 278.376C278.405 274.342 264.337 274.981 246.85 284.169C228.843 293.605 212.165 307.148 194.308 317.393C212.978 328.775 236.481 332.533 257.567 326.238C260.506 325.425 263.259 324.206 265.81 322.541C268.328 320.756 271.142 324.723 268.563 326.473C267.16 327.367 265.722 328.223 264.206 328.913C254.366 332.935 243.853 334.32 233.383 334.044ZM185.848 156.216C182.186 155.007 178.265 154.186 175.263 151.612C182.879 147.917 192.203 146.373 200.133 149.96C197.446 153.161 194.132 155.858 190.503 157.923C188.964 157.314 187.415 156.735 185.848 156.216ZM226.599 225.562C224.14 208.212 219.783 189.798 208.545 175.931C194.751 159.493 175.001 165.429 164.446 181.92C159.693 189.295 155.638 196.556 152.374 204.469C150.75 209.841 149.266 215.374 148.858 220.983C148.909 224.069 144.015 224.103 144.058 220.983C145.423 201.003 161.396 167.887 182.045 162.25C183.395 161.865 184.722 161.591 186.022 161.417C165.795 155.69 162.766 147.126 186.455 143.346C192.19 142.628 210.361 143.923 203.665 153.231C200.856 156.556 197.446 159.286 193.764 161.578C209.278 164.351 220.352 181.53 224.657 196.306C225.987 200.051 234.998 227.866 229.298 227.614C228.047 227.786 226.717 226.869 226.599 225.562ZM78.6634 125.255C76.1096 124.951 73.6767 123.978 71.3646 122.878C62.663 118.624 55.7597 101.876 66.3452 96.2818C76.0416 95.5816 83.6904 104.384 92.0092 108.275C92.241 108.388 92.4903 108.514 92.7523 108.648C87.8889 113.103 82.1541 119.12 78.6634 125.255ZM75.9359 131.778C76.0996 131.118 76.3035 130.456 76.5428 129.789C68.4482 128.32 61.5725 122.674 58.3311 115.08C54.3392 106.983 55.8504 93.6197 66.1059 91.4184C73.785 90.3808 80.439 95.8839 86.7858 99.43C89.3497 101.065 91.833 102.802 94.3944 104.117C95.359 104.711 96.8323 105.059 97.8649 105.711C99.0738 105.799 99.9805 106.651 99.7513 108.635C96.865 112.066 92.5961 114.569 89.803 118.309C86.3148 122.475 83.144 126.933 80.5801 131.733C80.094 134.04 76.4849 134.116 75.9359 131.778ZM291.222 104.56C291.376 104.399 291.514 104.208 291.633 103.981C298.057 99.168 304.334 92.1186 312.824 91.7207C324.062 93.8942 319.851 110.947 312.058 115.257C310.207 117.249 304.377 118.203 300.672 119.667C300.415 119.065 300.193 118.518 300.052 118.065C299.662 116.395 295.385 109.454 291.222 104.56ZM298.007 127.32C296.75 120.304 292.746 113.796 288.22 108.512C286.646 106.51 284.528 104.946 283.06 102.888C283.17 98.6366 285.248 98.9036 287.913 101.163C291.444 97.0323 296.589 94.2669 300.843 90.9046C319.302 78.1381 331.373 98.5737 320.178 114.065C316.655 118.694 311.476 121.664 305.915 123.15C304.931 123.329 303.687 123.885 302.447 124.308C303.062 126.577 302.991 128.653 300.712 129.371C299.418 129.557 298.224 128.615 298.007 127.32ZM156.353 141.699C157.177 149.957 151.407 153.194 144.249 154.415C143.98 156.511 142.365 159.022 141.685 160.593C138.756 166.31 131.966 168.29 125.937 167.519C120.963 167.361 114.437 159.299 114.011 154.755C112.883 154.584 112.009 153.521 112.009 152.38C112.009 151.038 113.102 150.03 114.407 149.982C124.373 149.761 134.432 151.355 144.307 149.363C148.465 148.728 152.787 146.61 151.556 141.699C151.523 138.596 156.386 138.589 156.353 141.699ZM262.77 150.217C262.939 151.448 262.025 152.826 260.72 152.919C259.702 152.992 258.687 153.073 257.672 153.161C257.985 160.936 249.475 168.537 241.7 167.481C233.295 167.252 225.412 161.215 225.944 152.733C220.138 150.854 215.675 147.169 217.695 140.402C219.418 137.956 223.455 140.291 221.891 142.956C223.682 151.348 239 149.358 245.601 149.431C248.981 149.841 262.783 145.973 262.77 150.217ZM108.118 95.8435C109.669 92.1261 115.303 89.1265 121.486 86.7264C111.931 83.6991 107.118 73.8792 99.8797 67.5425C82.5672 52.7208 54.7095 49.1394 37.9132 66.6333C26.2472 79.3747 22.5197 101.518 32.2565 116.337C34.3897 119.322 36.9209 122.067 39.9784 124.122C42.157 125.119 43.9325 127.862 41.6029 129.718C26.7283 138.669 44.9122 136.979 45.7937 141.848C46.0985 144.195 43.9501 146.356 44.6176 148.69C49.2467 157.911 57.3186 151.952 61.4189 152.287C61.6556 147.811 66.8716 146.764 66.6172 151.526C65.98 153.619 65.7029 155.808 65.1615 157.931C63.0509 169.912 55.5078 179.55 49.8436 189.972C42.9024 204.124 37.4296 222.364 46.577 236.661C47.1084 232.538 48.2619 228.347 49.9796 224.247C52.2085 221.542 55.8453 225.244 53.5257 227.652C49.8663 239.392 49.2744 254.84 60.895 262.282C62.2802 263.123 63.6956 263.914 65.1413 264.64C63.1567 259.716 62.1342 254.092 62.3281 247.743C62.454 245.241 62.1165 240.056 65.8943 240.724C67.1914 241.079 67.8689 242.403 67.5692 243.673C66.3779 250.105 67.9697 256.842 69.6369 263.068C69.5966 262.952 69.6319 263.053 69.5362 262.789C74.7798 277.633 91.3771 284.453 105.934 286.284C106.75 286.478 107.614 286.554 108.488 286.592C109.531 283.405 113.445 279.542 115.001 278.016C128.39 267.33 147.506 269.908 162.189 276.403C163.199 276.573 163.783 277.21 164.002 277.968C190.016 271.022 212.92 268.153 241.425 280.116C241.823 280.3 242.146 280.59 242.372 280.935C256.156 273.732 270.766 269.382 287.429 271.962C289.424 272.18 291.406 272.508 293.383 272.848C294.018 271.846 295.123 270.908 295.713 269.994C298.362 265.649 299.77 260.648 300.956 255.734C301.871 253.359 300.296 248.801 303.873 248.521C305.18 248.521 306.273 249.611 306.273 250.921C306.414 253.767 304.679 262.414 301.866 268.815C317.246 258.3 326.467 245.665 323.45 225.839C322.933 222.855 322.649 215.364 327.507 219.031C328.759 225.947 329.119 232.669 328.278 238.998C330.144 236.772 331.985 234.503 333.327 231.918C345.792 203.205 314.761 179.926 308.703 153.581C307.741 150.113 307.157 146.545 306.069 143.114C305.414 141.147 307.855 139.286 309.592 140.407C311.806 142.5 311.527 146.252 312.507 149.023C312.879 150.778 313.335 152.498 313.864 154.188C314.315 154.06 314.801 154.005 315.289 154.057C318.732 153.325 322.669 150.841 320.76 146.94C320.745 145.897 321.357 144.945 322.316 144.527C326.132 144.202 336.41 145.265 334.884 138.861C334.39 136.851 332.056 136.465 331.199 134.76C329.32 130.95 339.971 128.718 342.442 125.265C368.169 100.261 356.04 66.2832 322.979 56.413C304.236 50.2652 284.178 61.1227 274.046 77.0022C272.172 79.8885 270.338 82.8276 269.162 86.0766C268.948 86.9228 268.837 87.9554 268.467 88.7513C272.643 91.0961 275.461 93.6071 274.071 95.6899C273.247 96.7578 271.764 96.8812 270.706 96.1256C257.189 85.797 240.435 84.4194 224.352 82.0519C217.499 78.0827 222.287 66.9179 210.394 76.4532C210.19 77.5135 209.417 78.0953 208.553 78.2414C208.024 80.3821 207.15 82.2358 204.841 81.9361C200.287 79.6996 206.561 73.2571 205.163 69.5271C201.053 68.8496 196.668 71.8241 193.882 75.0277C192.185 78.8533 189.163 82.5909 186.654 80.9992C185.659 80.226 185.377 78.6317 186.223 77.6319C186.841 77.0198 187.546 76.1635 188.198 75.2014C188.518 74.1764 189.077 73.1614 189.82 72.1867C190.848 69.5296 190.613 67.0161 186.742 66.797C178.879 68.4391 172.238 73.582 164.808 76.4859C150.299 83.5983 134.152 86.331 119.477 92.9447C116.124 93.7607 110.153 101.402 108.118 95.8435Z" fill="#0C0A09"/>
</svg>
