<svg width="384" height="384" viewBox="0 0 384 384" fill="none" xmlns="http://www.w3.org/2000/svg">
<path fill-rule="evenodd" clip-rule="evenodd" d="M347.734 111.767C365.027 126.398 356.678 145.46 341.675 157.733C343.157 163.233 340.099 168.693 333.887 167.583C330.12 170.53 325.3 171.284 321.123 173.468C319.802 173.986 318.861 175.181 317.803 176.104C322.856 187.148 329.733 197.45 332.875 209.304C338.436 225.24 336.172 247.138 320.683 256.532C317.204 262.255 313.201 267.857 308.037 272.037C301.639 282.486 293.366 291.941 282.322 297.606C278.947 299.174 271.189 303.617 265.962 303.549C254.22 307.948 241.681 309.115 229.211 309.649C225.367 309.386 219.138 311.663 216.421 308.621C209.618 309.112 202.804 309.327 196.003 309.259C173.756 309.517 151.537 308.371 129.612 304.467C114.047 301.555 97.5938 298.934 83.9795 290.41C80.7688 287.953 76.1338 284.707 73.1382 280.884C71.8959 281.284 70.4765 281.12 69.1381 280.052C61.6415 275.677 58.0994 267.806 53.854 260.649C49.353 255.277 43.9412 250.554 41.9652 243.503C36.8873 228.942 39.9689 211.958 45.5629 197.938C48.0829 190.589 54.9925 185.172 56.1512 177.384C51.6528 176.372 47.63 172.709 47.7413 167.856C38.3395 167.656 29.1706 161.187 37.4262 152.109C31.1617 145.288 19.8169 133.437 26.3799 123.896C27.0985 120.389 28.3635 115.433 32.0675 114.229C34.1143 110.563 37.201 107.349 40.3662 105.244C51.21 99.6275 64.0299 98.4814 76.0654 97.6465C89.1029 96.5434 102.156 96.9684 115.198 97.2999C131.17 95.0304 147.302 92.3687 162.214 86.0259C168.292 83.6349 174.27 81.0011 180.107 78.0663C186.012 74.423 196.016 71.9208 195.566 82.2333C200.74 76.0271 209.21 73.9348 210.109 84.2929C216.904 76.7406 224.578 86.4611 231.806 88.1942C240.345 91.1013 249.514 91.1088 258.215 93.3808C266.82 96.341 275.9 95.0634 284.822 95.0305C297.877 94.4814 311.104 95.5592 323.724 99.0709C331.635 101.173 338.262 104.43 343.122 109.014C344.718 109.806 346.262 110.714 347.734 111.767Z" fill="white"/>
<path fill-rule="evenodd" clip-rule="evenodd" d="M356.858 123.727C354.703 119.949 351.639 113.576 346.988 113.047C346.811 112.164 346.209 110.024 345.377 107.828C344.962 107.603 344.552 107.372 344.142 107.152C343.332 106.717 342.548 106.241 341.807 105.692C341.354 105.358 340.992 104.941 340.724 104.473C340.607 104.402 340.488 104.331 340.375 104.263C339.945 104.149 339.547 103.967 339.193 103.729C339.175 103.782 339.153 103.835 339.132 103.891C343.689 113.255 346.801 125.989 336.124 132.595C331.702 136.79 321.617 133.753 323.744 139.717C325.599 144.415 326.603 150.849 322.095 154.369C320.372 156.005 317.743 156.719 316.716 159.011C315.512 162.541 315.152 168.782 319.441 170.265C320.579 170.538 321.725 170.662 322.869 170.662C328.268 170.662 333.607 167.869 337.829 164.689C341.027 161.949 340.696 157.438 344.85 155.411C354.004 148.215 362.113 135.449 356.858 123.727ZM157.964 179.426C162.89 178.488 167.761 176.841 172.631 175.861C183.192 173.283 194.127 173.906 204.907 175.171C215.341 175.457 226.82 179.636 236.437 173.901C246.193 167.57 246.61 152.258 238.742 144.248C221.747 127.335 190.157 123.385 168.122 131.476C157.256 135.535 147.596 143.168 140.368 152.17C134.25 162.138 130.718 177.812 146.351 179.71C137.749 182.212 123.231 193.37 131.449 196.762C140.557 198.169 151.457 191.434 158.172 185.714C160.892 182.68 160.072 180.456 157.964 179.426ZM241.872 189.02C241.596 188.15 240.791 187.803 240.002 187.502C238.284 186.554 236.735 185.334 235.119 184.228C231.154 181.425 226.668 178.126 221.606 178.384C219.126 176.34 214.931 177.85 214.053 180.876C213.507 190.184 224.788 194.84 232.563 195.902C235.779 195.902 243.891 196.876 245.404 193.542C245.975 191.254 243.407 190.08 241.872 189.02ZM218.329 183.006C218.322 182.801 218.329 182.591 218.357 182.389C218.309 182.227 218.281 182.06 218.276 181.888C218.241 181.918 218.203 181.951 218.17 181.984C218.205 181.944 218.241 181.903 218.276 181.865C218.276 181.863 218.276 181.86 218.276 181.86C218.238 181.898 218.2 181.941 218.17 181.984C218.155 181.997 218.142 182.015 218.129 182.03C218.112 182.366 218.193 182.703 218.329 183.006ZM333.92 209.582C337.536 225.939 335.029 245.089 321.333 256.115C316.572 263.341 312.218 270.628 304.918 275.614C299.276 279.903 296.473 286.658 291.428 291.506C274.284 308.128 233.421 309.535 203.837 309.535C200.819 309.535 197.924 309.52 195.179 309.507C192.358 309.492 189.699 309.477 187.242 309.48C152.102 308.508 102.74 307.461 76.0153 281.988C75.5497 281.446 75.446 280.7 75.6484 280.042C70.2619 277.99 64.8374 275.496 61.5812 270.486C56.0808 261.993 50.0947 253.836 44.0048 245.828C31.9819 223.055 42.798 201.243 58.874 183.986C59.9518 183.181 60.721 181.541 61.5812 180.152C61.6293 179.358 61.6925 178.558 61.771 177.759C61.8038 177.245 61.8418 176.732 61.8798 176.218C60.1315 178.311 57.6824 179.426 54.3351 178.662C49.3863 177.62 47.5596 172.534 48.6728 168.008C43.4938 165.359 35.0939 163.892 34.34 156.904C33.7302 154.467 36.1666 151.925 35.2052 149.807C27.1773 140.41 24.4373 125.589 31.0863 114.722C33.3609 111.236 36.7182 105.156 41.2951 105.3C44.0073 97.991 50.9727 103.107 45.9555 105.672C40.3692 115.079 40.0326 125.776 50.4236 131.805C53.4673 133.252 56.8297 133.738 55.719 138.093C53.9708 144.408 54.492 152.881 61.0727 156.152C62.6363 156.759 64.587 157.109 65.4826 158.634C66.0898 156.85 66.7704 155.092 67.5294 153.367C69.3561 150.945 69.9684 142.862 73.8192 144.081C77.3107 146.045 70.6186 155.052 70.1506 158.116C69.4573 159.947 68.8527 161.809 68.3365 163.694C67.1727 165.949 66.1859 168.307 65.3839 170.71C65.0221 171.808 64.7084 172.919 64.4453 174.037C63.7217 174.422 63.1221 174.963 62.7173 175.725C62.2998 176.522 62.1632 177.453 62.3251 178.336C62.3757 178.599 62.4541 178.857 62.5578 179.105C62.4364 179.588 62.3149 180.071 62.2238 180.562C61.9885 181.84 61.776 183.133 61.6495 184.423C61.3763 187.191 61.3965 189.989 61.4876 192.765C61.6698 198.283 62.2441 203.915 63.8482 209.215C65.7154 215.396 68.4453 221.256 72.124 226.564C75.7092 231.73 79.8205 236.619 84.3392 240.996C88.9085 245.418 93.9586 249.39 99.1427 253.069C103.006 255.814 106.983 258.438 111.12 260.758C111.325 260.925 111.53 261.089 111.732 261.251C113.02 262.268 114.371 263.253 115.798 264.067C118.789 265.775 121.936 267.108 125.139 268.358C127.937 269.449 130.789 270.37 133.66 271.243C139.452 273.006 145.241 274.787 151.158 276.075C157.094 277.365 163.174 277.879 169.215 278.436C172.166 278.709 175.123 278.944 178.081 279.167C180.915 279.377 183.746 279.551 186.589 279.556C186.703 279.559 186.817 279.559 186.931 279.559C192.92 279.559 198.921 279.2 204.877 278.567C207.422 278.327 209.965 278.005 212.497 277.671C214.984 277.345 217.477 277.009 219.951 276.573C224.735 275.733 229.499 274.764 234.269 273.818C237.398 273.198 240.49 272.419 243.574 271.599C246.436 270.838 249.295 270.064 252.101 269.12C258.127 267.088 263.82 264.201 269.338 261.072C274.664 258.053 279.972 254.972 284.728 251.098C285.976 250.084 287.195 249.026 288.377 247.925C288.764 247.632 289.148 247.333 289.53 247.027C291.944 245.092 294.153 242.86 296.116 240.472C298.105 238.058 299.777 235.354 301.391 232.684C301.748 232.1 302.097 231.51 302.441 230.918C307.395 223.66 311.049 215.485 313.361 207.032C313.343 207.108 313.321 207.184 313.298 207.262C313.338 207.126 313.376 206.986 313.412 206.852C313.412 206.85 313.412 206.85 313.412 206.85C313.422 206.817 313.432 206.781 313.442 206.749C313.442 206.741 313.442 206.733 313.445 206.726C313.457 206.688 313.47 206.647 313.483 206.607C313.485 206.604 313.485 206.604 313.485 206.602C313.488 206.594 313.49 206.584 313.493 206.574C313.495 206.561 313.498 206.549 313.5 206.533C313.5 206.528 313.5 206.526 313.503 206.518C314.459 202.9 314.905 199.176 315.102 195.444C315.201 193.602 315.279 191.76 315.279 189.916C315.292 189.514 315.304 189.111 315.312 188.709C315.373 185.461 315.314 182.197 314.95 178.963C314.606 175.915 314.166 172.836 313.356 169.873C313.1 168.942 312.815 168.021 312.506 167.112C312.478 166.953 312.453 166.794 312.425 166.634C311.919 163.644 311.398 160.646 310.608 157.711C310.267 156.441 309.629 155.105 308.486 154.374C308.093 154.121 307.673 153.931 307.241 153.804C307.097 153.475 306.955 153.141 306.808 152.81C306.54 152.193 306.1 151.699 305.566 151.343C305.541 151.246 305.518 151.148 305.49 151.054C305.348 149.663 306.763 148.463 308.119 148.81C310.813 150.009 310.155 154.305 311.089 156.78C311.276 157.693 311.451 158.609 311.608 159.527C314.507 159.355 314.059 163.327 314.811 165.286C316.071 171.052 317.882 177.068 320.013 182.361C320.39 183.733 321.5 186.017 322.646 188.562C322.654 188.552 322.664 188.54 322.672 188.53C322.935 187.821 323.459 187.292 324.44 187.075C325.551 186.984 326.669 187.851 326.712 189.003C326.727 189.344 326.74 189.688 326.743 190.03C330.085 195.123 333.404 207.275 333.92 209.582Z" fill="#E3DED3"/>
<path fill-rule="evenodd" clip-rule="evenodd" d="M199.955 222.875C205.435 230.862 191.6 234.657 185.683 233.516C182.146 232.626 176.865 232.203 174.968 228.785C171.337 228.107 172.949 223.728 176.122 223.73C182.034 223.047 195.095 219.867 199.955 222.875Z" fill="#B37A36"/>
<path fill-rule="evenodd" clip-rule="evenodd" d="M76.8328 131.517C79.0466 130.578 80.8531 133.663 78.9404 135.128C78.2294 135.634 77.3869 135.94 76.6228 136.372C76.4457 136.749 76.1548 137.078 75.7828 137.321C75.5071 137.503 75.2237 137.678 74.9378 137.85C75.2717 141.303 71.8662 144.271 70.753 147.477C68.815 149.888 67.2135 159.221 64.1268 158.687C63.4538 158.584 62.8162 158.192 62.5126 157.577C55.5473 161.367 53.0122 145.005 58.8415 142.849C59.8611 140.906 61.9712 136.719 64.6252 138.601C68.5873 136.071 72.6025 133.564 76.8328 131.517Z" fill="#F6AA93"/>
<path fill-rule="evenodd" clip-rule="evenodd" d="M324.252 144.61C328.227 148.957 321.009 163.077 315.473 158.283C313.469 154.925 310.82 151.993 308.578 148.78C306.514 144.841 296.884 136.686 297.322 133.607C298.623 130.351 303.877 133.42 306.499 133.405C313.312 135.034 320.384 138.571 324.252 144.61Z" fill="#F6AA93"/>
<path fill-rule="evenodd" clip-rule="evenodd" d="M127.669 255.652C116.974 255.039 109.305 242.814 114.97 233.271C120.048 225.172 132.043 220.221 140.855 225.099C157.668 234.278 144.959 259.161 127.669 255.652Z" fill="#FCD8DB"/>
<path fill-rule="evenodd" clip-rule="evenodd" d="M244.76 254.471C221.129 254.767 220.363 223.644 243.885 222.969C267.533 221.476 269.471 256.141 244.76 254.471Z" fill="#FCD8DB"/>
<path fill-rule="evenodd" clip-rule="evenodd" d="M301.652 284.723C279.564 317.146 220.181 313.895 182.643 313.92C151.518 312.326 118.986 310.874 90.51 296.991C80.9539 292.852 74.5073 287.45 70.4238 280.601C69.6698 281.505 68.3592 281.935 67.1676 280.999C61.2219 276.25 56.5438 269.451 53.6772 261.972C53.2926 261.924 52.898 261.765 52.5134 261.461C24.4043 241.142 35.1672 206.083 54.3325 183.502C55.1194 182.48 55.8303 181.428 56.4755 180.352C50.3021 180.542 42.8637 175.452 45.1256 168.641C36.6044 169.192 25.4695 159.75 33.467 151.874C18.3246 139.623 19.9792 115.542 36.0528 104.903C49.7151 94.3934 67.5066 93.9506 84.0153 94.2997C96.0104 94.3377 108.053 95.2181 119.988 93.6267C121.847 93.781 124.423 92.6779 126.508 92.6349C133.789 90.2743 141.43 88.9436 148.917 87.1928C162.835 83.7114 175.323 76.4753 188.679 71.5948C192.831 70.1046 198.453 71.4152 200.12 75.519C201.75 74.3957 203.26 73.5506 204.125 73.2521C209.595 71.4254 212.786 74.6587 213.679 78.9523C213.922 78.846 214.16 78.7574 214.385 78.6891C219.159 76.9763 223.119 81.1712 227.119 83.0713C231.02 85.0447 235.217 86.2693 239.498 87.1042C241.763 87.8556 249.907 89.2649 257.436 91.1801C259.276 89.6393 263.418 91.509 265.735 91.218C275.949 91.6406 286.173 91.6735 296.387 92.1036C314.07 93.2927 332.741 96.9992 347.509 107.269C366.321 121.948 367.932 148.673 343.56 158.149C347.059 166.776 337.174 171.925 329.877 172.216C328.071 172.337 324.929 174.67 322.28 175.525C324.463 181.676 326.793 187.761 330.184 193.372C338.318 209.264 342.877 228.692 334.454 245.403C332.817 248.434 322.988 265.975 319.476 262.046C319.345 262.461 319.221 262.792 319.109 263.017C318.368 266.537 306.396 285.705 301.652 284.723ZM64.1973 159.257C64.0151 159.026 63.7748 158.816 63.4712 158.644C54.1352 154.391 55.3066 145.015 63.4256 140.152C67.4433 137.114 72.1644 135.623 76.8274 134.002C73.222 139.244 70.2341 144.962 67.5243 150.619C66.1581 153.415 65.1182 156.319 64.1973 159.257ZM301.735 137.685C301.781 135.727 299.028 134.502 298.004 132.901C305.353 134.728 313.348 135.31 319.712 139.773C327.044 144.742 325.622 155.631 317.093 158.267C316.701 158.354 316.286 158.467 315.886 158.617C314.067 154.601 311.929 150.738 309.191 147.153C306.844 143.894 304.329 140.752 301.735 137.685ZM133.24 196.636C124.332 192.618 136.874 186.516 140.853 184.132C145.175 181.372 157.661 174.559 158.576 183.525C158.612 183.426 158.642 183.335 158.68 183.229C154.242 189.863 140.745 194.733 133.24 196.636ZM135.649 202.114C121.321 200.077 122.781 188.036 134.252 182.442C142.361 177.332 156.952 168.127 163.113 180.363C166.354 190.622 145.709 197.582 138.295 200.373C137.979 201.522 136.82 202.243 135.649 202.114ZM235.023 194.931C226.041 195.472 220.657 189.461 215.501 183.396C212.674 176.38 222.519 177.536 226.205 179.859C232.305 183.69 238.514 187.616 243.971 192.315C241.426 194.392 238.274 194.427 235.023 194.931ZM230.959 199.528C224.576 198.614 218.896 194.996 214.845 190.055C206.109 183.91 210.572 170.791 221.803 173.402C231.169 175.191 238.35 182.597 246.081 187.596C255.85 196.545 237.725 200.998 230.959 199.528ZM218.387 218.291C211.834 217.413 208.819 210.238 209.395 204.292C210.048 201.592 214.306 201.99 214.281 204.831C213.603 208.793 216.454 215.26 221.332 213.152C223.708 212.272 224.824 207.692 227.812 209.749C231.402 213.742 222.104 219.455 218.387 218.291ZM190.868 232.515C185.241 232.467 178.157 231.202 174.556 226.531C174.584 226.438 174.632 226.749 174.698 226.807C174.379 226.228 174.668 225.565 174.513 224.96C182.577 223.822 190.997 222.172 199.08 223.771C197.691 227.455 195.399 232.434 190.868 232.515ZM184.133 236.738C178.384 235.455 166.855 231.384 170.468 223.743C168.912 218.789 176.909 220.363 179.746 219.272C186.997 218.809 195.171 216.796 202.005 219.915C205.14 222.091 203.72 226.063 202.19 228.793C199.053 236.31 191.693 238.835 184.133 236.738ZM194.832 254.218C194.015 241.249 187.184 243.913 180.988 252.07C179.735 257.778 172.444 252.953 178.513 247.379C183.503 240.808 194.888 235.908 198.129 246.658C198.663 249.471 201.57 255.108 197.545 256.277C196.269 256.454 194.999 255.523 194.832 254.218ZM145.671 214.172C144.155 213.296 142.485 211.902 142.485 209.997C142.485 208.684 143.581 207.589 144.894 207.589C146.67 207.455 146.837 209.377 148.099 210.012C148.234 210.088 148.355 210.172 148.466 210.26C148.681 210.26 148.909 210.293 149.149 210.362C155.12 212.09 158.25 205.716 160.616 201.423C161.992 198.819 166.131 200.879 164.927 203.556C161.858 210.169 156.062 217.479 147.867 215.009C147.48 214.906 147.166 214.739 146.918 214.529C146.518 214.534 146.096 214.427 145.671 214.172ZM177.851 149.018C176.816 148.021 176.993 146.331 178.035 145.41C180.753 142.085 183.047 138.429 185.132 134.68C186.622 130.313 192.522 132.529 189.795 136.309C187.639 138.958 181.921 152.714 177.851 149.018ZM191.604 147.788C188.085 145.321 194.273 139.818 195.078 136.747C195.688 135.358 196.014 133.453 197.954 133.501C202.514 134.151 199.273 139.249 197.965 141.571C196.282 143.73 195.252 149.384 191.604 147.788ZM203.895 146.758C201.16 144.992 203.946 142.333 204.867 140.347C205.765 137.948 207.905 133.114 210.893 136.14C212.411 138.348 209.676 140.463 209.115 142.606C208.012 144.496 206.698 148.243 203.895 146.758ZM112.676 100.703C112.6 100.164 112.709 99.6583 112.949 99.2308C101.402 99.6836 87.5599 98.9045 84.4277 99.122C70.2087 98.9601 55.0739 98.6742 42.5348 106.376C26.4841 114.621 22.1247 136.016 36.4879 148.132C45.6392 153.999 30.1602 155.133 37.6872 161.352C42.0313 165.701 50.1604 161.638 51.2205 165.521C51.6759 167.371 49.9277 168.805 49.6013 170.536C49.2699 174.144 53.8391 175.581 56.774 175.52C57.5862 175.51 58.1833 175.836 58.5755 176.325C60.5084 172.046 61.7583 167.515 63.0765 162.991C62.4794 163.247 61.7659 163.244 61.0372 162.806C48.0428 156.443 49.91 142.333 61.5078 135.646C67.8558 130.682 76.5061 130.33 82.9527 125.865C83.2538 125.685 83.5371 125.546 83.8053 125.442C84.8224 124.413 85.88 123.421 86.9856 122.48C89.412 120.58 92.4531 124.415 89.9306 126.292C88.6377 127.186 87.5903 128.36 86.5277 129.498C78.7983 138.422 72.9184 148.911 68.9411 160.011C67.0411 165.804 65.8722 172.464 63.2409 177.84C58.0517 188.519 49.0219 196.851 44.5766 207.948C38.1603 222.584 37.92 240.692 49.7506 252.662C50.292 253.261 50.8613 253.833 51.4483 254.382C50.1478 248.082 50.1503 241.626 51.7468 235.746C53.7329 234.218 56.3237 236.411 55.5166 238.683C54.8841 249.332 56.6399 260.376 62.8487 269.274C64.3642 271.394 65.9532 273.499 67.8406 275.296C65.4193 269.11 64.4553 261.927 64.554 253.649C65.0069 250.577 69.7078 251.197 69.3283 254.304C69.1183 258.605 69.9026 262.888 70.6743 267.106C76.8223 316.412 216.373 311.719 253.861 305.566C275.929 302.17 298.112 291.445 303.8 268.004C305.612 260.589 305.586 252.9 305.475 245.312C305.457 243.999 306.586 242.903 307.886 242.901C312.23 243.652 309.675 249.977 310.307 253.069C310.348 260.88 309.237 267.68 307.185 273.621C310.414 269.639 313.293 265.35 314.915 260.449C316.645 255.263 317.088 249.793 317.146 244.386C317.397 241.889 316.256 236.91 320.089 237.074C323.504 237.084 322.204 249.34 320.668 257.115C323.431 253.813 326.039 250.362 328.306 246.698C333.883 237.509 335.352 226.266 333.235 215.799C330.849 203.47 323.911 192.838 319.114 181.42C315.36 171.072 312.825 160.231 306.14 151.214C303.304 147.107 300.159 143.221 296.913 139.436C296.458 138.991 296.243 138.487 296.207 137.986C294.026 135.978 291.896 133.627 291.451 130.783C292.61 124.218 304.266 130.13 308.607 130.292C314.783 131.595 321.354 133.749 325.554 138.715C335.375 149.764 324.521 161.928 317.837 163.244C318.821 165.736 319.727 168.269 320.62 170.809C321.829 170.546 323.168 170.384 324.01 169.564C328.271 165.817 336.327 168.411 339.337 162.71C338.186 155.204 337.961 155.021 345.25 152.17C363.236 142.384 358.449 121.437 344.069 110.707C331.188 102.044 315.312 98.8361 300.109 97.1106C292.402 96.7589 284.685 96.5287 276.971 96.3542C275.782 96.1745 273.351 96.2226 270.57 96.2327C271.544 97.0676 271.951 97.943 271.564 98.8538C271.063 100.053 269.591 100.668 268.407 100.137C255.245 94.0542 240.356 93.6445 226.992 88.3313C223.311 87.4812 218.23 81.3483 214.873 83.8429C214.428 84.2857 213.97 84.8043 213.456 85.1763C213.261 85.8695 213.016 86.545 212.71 87.1851C211.875 89.361 211.495 93.7709 208.163 92.6096C203.303 90.1402 214.076 78.8309 206.499 77.5279L206.536 77.5506C203.88 78.4032 201.595 80.1718 199.657 82.2034C198.023 86.1225 194.564 89.3838 191.751 92.4325C190.815 93.3535 189.279 93.3712 188.343 92.4325C186.139 90.3402 190.319 86.9169 193.256 83.4229C193.264 82.1629 194.286 80.6424 195.723 79.1649C195.895 78.2465 195.738 77.3634 195.083 76.5412C188.176 74.1857 181.236 80.5715 174.895 82.8005C161.451 88.9764 147.242 92.9107 132.765 95.7368C128.81 96.7185 124.954 98.0746 121.306 99.8912C118.725 100.906 114.017 105.247 112.676 100.703Z" fill="#493122"/>
</svg>
