<svg width="148" height="48" viewBox="0 0 148 48" fill="none" xmlns="http://www.w3.org/2000/svg">
<path d="M64.67 15.97C65.81 15.97 66.84 16.12 67.76 16.42C68.7 16.7 69.49 17.07 70.13 17.53C70.53 17.81 70.84 18.12 71.06 18.46C71.3 18.8 71.42 19.24 71.42 19.78V30.28C71.42 31.34 71.22 32.25 70.82 33.01C70.42 33.79 69.87 34.43 69.17 34.93C68.49 35.45 67.68 35.83 66.74 36.07C65.82 36.31 64.83 36.43 63.77 36.43C61.95 36.43 60.52 36.18 59.48 35.68C58.44 35.2 57.92 34.41 57.92 33.31C57.92 32.85 58.01 32.44 58.19 32.08C58.39 31.74 58.61 31.48 58.85 31.3C59.43 31.62 60.08 31.89 60.8 32.11C61.54 32.33 62.3 32.44 63.08 32.44C64.16 32.44 65.02 32.26 65.66 31.9C66.3 31.54 66.62 30.96 66.62 30.16V29.68C65.8 30.04 64.8 30.22 63.62 30.22C62.72 30.22 61.86 30.09 61.04 29.83C60.24 29.55 59.53 29.13 58.91 28.57C58.31 27.99 57.82 27.25 57.44 26.35C57.08 25.45 56.9 24.38 56.9 23.14C56.9 21.92 57.09 20.86 57.47 19.96C57.87 19.06 58.41 18.32 59.09 17.74C59.79 17.14 60.61 16.7 61.55 16.42C62.51 16.12 63.55 15.97 64.67 15.97ZM66.53 20.32C66.39 20.24 66.18 20.16 65.9 20.08C65.64 20 65.31 19.96 64.91 19.96C63.93 19.96 63.19 20.24 62.69 20.8C62.21 21.34 61.97 22.12 61.97 23.14C61.97 24.3 62.21 25.14 62.69 25.66C63.19 26.16 63.82 26.41 64.58 26.41C65.4 26.41 66.05 26.22 66.53 25.84V20.32ZM79.6815 30.97C79.4815 31.03 79.1615 31.09 78.7215 31.15C78.3015 31.21 77.8615 31.24 77.4015 31.24C76.9615 31.24 76.5615 31.21 76.2015 31.15C75.8615 31.09 75.5715 30.97 75.3315 30.79C75.0915 30.61 74.9015 30.37 74.7615 30.07C74.6415 29.75 74.5815 29.34 74.5815 28.84V19.84C74.5815 19.38 74.6615 18.99 74.8215 18.67C75.0015 18.33 75.2515 18.03 75.5715 17.77C75.8915 17.51 76.2815 17.28 76.7415 17.08C77.2215 16.86 77.7315 16.67 78.2715 16.51C78.8115 16.35 79.3715 16.23 79.9515 16.15C80.5315 16.05 81.1115 16 81.6915 16C82.6515 16 83.4115 16.19 83.9715 16.57C84.5315 16.93 84.8115 17.53 84.8115 18.37C84.8115 18.65 84.7715 18.93 84.6915 19.21C84.6115 19.47 84.5115 19.71 84.3915 19.93C83.9715 19.93 83.5415 19.95 83.1015 19.99C82.6615 20.03 82.2315 20.09 81.8115 20.17C81.3915 20.25 80.9915 20.34 80.6115 20.44C80.2515 20.52 79.9415 20.62 79.6815 20.74V30.97ZM86.7955 12.37C86.7955 11.61 87.0455 10.97 87.5455 10.45C88.0655 9.93 88.7455 9.67 89.5855 9.67C90.4255 9.67 91.0955 9.93 91.5955 10.45C92.1155 10.97 92.3755 11.61 92.3755 12.37C92.3755 13.13 92.1155 13.77 91.5955 14.29C91.0955 14.81 90.4255 15.07 89.5855 15.07C88.7455 15.07 88.0655 14.81 87.5455 14.29C87.0455 13.77 86.7955 13.13 86.7955 12.37ZM92.1355 30.97C91.9155 31.01 91.5855 31.06 91.1455 31.12C90.7255 31.2 90.2955 31.24 89.8555 31.24C89.4155 31.24 89.0155 31.21 88.6555 31.15C88.3155 31.09 88.0255 30.97 87.7855 30.79C87.5455 30.61 87.3555 30.37 87.2155 30.07C87.0955 29.75 87.0355 29.34 87.0355 28.84V16.63C87.2555 16.59 87.5755 16.54 87.9955 16.48C88.4355 16.4 88.8755 16.36 89.3155 16.36C89.7555 16.36 90.1455 16.39 90.4855 16.45C90.8455 16.51 91.1455 16.63 91.3855 16.81C91.6255 16.99 91.8055 17.24 91.9255 17.56C92.0655 17.86 92.1355 18.26 92.1355 18.76V30.97ZM95.8923 31C95.5723 30.72 95.3123 30.39 95.1123 30.01C94.9323 29.63 94.8423 29.2 94.8423 28.72C94.8423 28.32 94.9323 27.93 95.1123 27.55C95.3123 27.15 95.5523 26.78 95.8323 26.44L100.992 20.38H95.4723C95.3523 20.16 95.2323 19.88 95.1123 19.54C95.0123 19.2 94.9623 18.83 94.9623 18.43C94.9623 17.73 95.1123 17.23 95.4123 16.93C95.7323 16.61 96.1523 16.45 96.6723 16.45H106.122C106.442 16.73 106.692 17.06 106.872 17.44C107.072 17.82 107.172 18.25 107.172 18.73C107.172 19.13 107.072 19.53 106.872 19.93C106.692 20.31 106.462 20.67 106.182 21.01L101.142 27.07H107.022C107.142 27.29 107.252 27.57 107.352 27.91C107.472 28.25 107.532 28.62 107.532 29.02C107.532 29.72 107.372 30.23 107.052 30.55C106.752 30.85 106.342 31 105.822 31H95.8923ZM110.336 31C110.016 30.72 109.756 30.39 109.556 30.01C109.376 29.63 109.286 29.2 109.286 28.72C109.286 28.32 109.376 27.93 109.556 27.55C109.756 27.15 109.996 26.78 110.276 26.44L115.436 20.38H109.916C109.796 20.16 109.676 19.88 109.556 19.54C109.456 19.2 109.406 18.83 109.406 18.43C109.406 17.73 109.556 17.23 109.856 16.93C110.176 16.61 110.596 16.45 111.116 16.45H120.566C120.886 16.73 121.136 17.06 121.316 17.44C121.516 17.82 121.616 18.25 121.616 18.73C121.616 19.13 121.516 19.53 121.316 19.93C121.136 20.31 120.906 20.67 120.626 21.01L115.586 27.07H121.466C121.586 27.29 121.696 27.57 121.796 27.91C121.916 28.25 121.976 28.62 121.976 29.02C121.976 29.72 121.816 30.23 121.496 30.55C121.196 30.85 120.786 31 120.266 31H110.336ZM129.459 30.97C129.239 31.01 128.909 31.06 128.469 31.12C128.049 31.2 127.619 31.24 127.179 31.24C126.739 31.24 126.339 31.21 125.979 31.15C125.639 31.09 125.349 30.97 125.109 30.79C124.869 30.61 124.679 30.37 124.539 30.07C124.419 29.75 124.359 29.34 124.359 28.84V11.44C124.579 11.4 124.899 11.35 125.319 11.29C125.759 11.21 126.199 11.17 126.639 11.17C127.079 11.17 127.469 11.2 127.809 11.26C128.169 11.32 128.469 11.44 128.709 11.62C128.949 11.8 129.129 12.05 129.249 12.37C129.389 12.67 129.459 13.07 129.459 13.57V30.97ZM140.387 31.48C139.207 31.48 138.107 31.32 137.087 31C136.087 30.66 135.207 30.16 134.447 29.5C133.707 28.84 133.117 28.01 132.677 27.01C132.257 26.01 132.047 24.84 132.047 23.5C132.047 22.18 132.257 21.05 132.677 20.11C133.117 19.15 133.687 18.37 134.387 17.77C135.087 17.15 135.887 16.7 136.787 16.42C137.687 16.12 138.607 15.97 139.547 15.97C140.607 15.97 141.567 16.13 142.427 16.45C143.307 16.77 144.057 17.21 144.677 17.77C145.317 18.33 145.807 19 146.147 19.78C146.507 20.56 146.687 21.41 146.687 22.33C146.687 23.01 146.497 23.53 146.117 23.89C145.737 24.25 145.207 24.48 144.527 24.58L137.117 25.69C137.337 26.35 137.787 26.85 138.467 27.19C139.147 27.51 139.927 27.67 140.807 27.67C141.627 27.67 142.397 27.57 143.117 27.37C143.857 27.15 144.457 26.9 144.917 26.62C145.237 26.82 145.507 27.1 145.727 27.46C145.947 27.82 146.057 28.2 146.057 28.6C146.057 29.5 145.637 30.17 144.797 30.61C144.157 30.95 143.437 31.18 142.637 31.3C141.837 31.42 141.087 31.48 140.387 31.48ZM139.547 19.69C139.067 19.69 138.647 19.77 138.287 19.93C137.947 20.09 137.667 20.3 137.447 20.56C137.227 20.8 137.057 21.08 136.937 21.4C136.837 21.7 136.777 22.01 136.757 22.33L141.887 21.49C141.827 21.09 141.607 20.69 141.227 20.29C140.847 19.89 140.287 19.69 139.547 19.69Z" fill="#0C0A09"/>
<path d="M37 38.16C39.98 35.24 44 24.74 44 20.16C44 17.2426 42.8411 14.4447 40.7782 12.3818C38.7153 10.3189 35.9174 9.16 33 9.16C29.48 9.16 27 8.16016 24 11.1602C21 8.16016 18.52 9.16 15 9.16C12.0826 9.16 9.28473 10.3189 7.22183 12.3818C5.15893 14.4447 4 17.2426 4 20.16C4 24.76 9 35.26 12 38.16L24 45.16L37 38.16Z" fill="#292524" stroke="#0C0A09" stroke-width="3" stroke-linecap="round" stroke-linejoin="round"/>
<path d="M45.5 6C45.5 8.48528 43.4853 10.5 41 10.5C38.5147 10.5 36.5 8.48528 36.5 6C36.5 5.51729 36.6418 5.19562 36.8558 4.94025C37.0922 4.65798 37.4817 4.38377 38.0657 4.14959C39.2581 3.6714 40.9032 3.5 42.5 3.5C44.1812 3.5 44.7866 3.70716 45.0387 3.91491C45.1979 4.04617 45.5 4.42939 45.5 6Z" fill="#292524" stroke="#0C0A09" stroke-width="3"/>
<path d="M2.5 6C2.5 8.48528 4.51472 10.5 7 10.5C9.48528 10.5 11.5 8.48528 11.5 6C11.5 5.51729 11.3582 5.19562 11.1442 4.94025C10.9078 4.65798 10.5183 4.38377 9.93435 4.14959C8.74187 3.6714 7.09677 3.5 5.5 3.5C3.81876 3.5 3.21342 3.70716 2.96134 3.91491C2.80207 4.04617 2.5 4.42939 2.5 6Z" fill="#292524" stroke="#0C0A09" stroke-width="3"/>
<path d="M35.5485 21.5887C34.2714 22.2991 32.7898 23.0624 31.5262 23.6743C30.8944 23.9803 30.3214 24.2463 29.8586 24.448C29.3792 24.6569 29.0621 24.7771 28.9195 24.8145C28.1145 25.0255 27.1948 24.5058 26.9376 23.5249C26.6805 22.5441 27.2269 21.64 28.0318 21.4289C28.1734 21.3918 28.5096 21.3399 29.0311 21.2846C29.5345 21.2313 30.1666 21.1789 30.8692 21.1322C32.2745 21.0387 33.9429 20.9692 35.3968 20.9586C35.6762 20.9565 35.8423 21.0155 35.9246 21.0639C35.9649 21.0876 35.984 21.1078 35.9917 21.1175C35.9957 21.1226 35.9975 21.1258 35.9981 21.1272L35.9988 21.1286L35.9989 21.1289L35.999 21.1295L35.9992 21.1317C35.9992 21.1337 35.9992 21.1383 35.998 21.1456C35.9955 21.16 35.9877 21.1891 35.9628 21.2315C35.912 21.318 35.793 21.4527 35.5485 21.5887Z" fill="#FAFAF9" stroke="#0C0A09" stroke-width="1.5"/>
<path d="M11.8724 21.5887C13.1495 22.2991 14.6311 23.0624 15.8947 23.6743C16.5265 23.9803 17.0995 24.2463 17.5623 24.448C18.0417 24.6569 18.3588 24.7771 18.5014 24.8145C19.3064 25.0255 20.2261 24.5058 20.4833 23.5249C20.7404 22.5441 20.194 21.64 19.3891 21.4289C19.2474 21.3918 18.9113 21.3399 18.3898 21.2846C17.8864 21.2313 17.2543 21.1789 16.5517 21.1322C15.1464 21.0387 13.478 20.9692 12.0241 20.9586C11.7447 20.9565 11.5786 21.0155 11.4963 21.0639C11.456 21.0876 11.4369 21.1078 11.4292 21.1175C11.4252 21.1226 11.4234 21.1258 11.4227 21.1272L11.4221 21.1286L11.422 21.1289L11.4219 21.1295L11.4217 21.1317C11.4217 21.1337 11.4217 21.1383 11.4229 21.1456C11.4254 21.16 11.4332 21.1891 11.4581 21.2315C11.5089 21.318 11.6279 21.4527 11.8724 21.5887Z" fill="#FAFAF9" stroke="#0C0A09" stroke-width="1.5"/>
<path d="M23.634 33.5L22.3349 31.25C21.95 30.5833 22.4312 29.75 23.201 29.75L25.799 29.75C26.5688 29.75 27.05 30.5833 26.6651 31.25L25.366 33.5C24.9811 34.1667 24.0189 34.1667 23.634 33.5Z" fill="#292524" stroke="#0C0A09" stroke-width="2"/>
</svg>
