<svg width="48" height="48" viewBox="0 0 48 48" fill="none" xmlns="http://www.w3.org/2000/svg">
<path d="M37 38.16C39.98 35.24 44 24.74 44 20.16C44 17.2426 42.8411 14.4447 40.7782 12.3818C38.7153 10.3189 35.9174 9.16 33 9.16C29.48 9.16 27 8.16016 24 11.1602C21 8.16016 18.52 9.16 15 9.16C12.0826 9.16 9.28473 10.3189 7.22183 12.3818C5.15893 14.4447 4 17.2426 4 20.16C4 24.76 9 35.26 12 38.16L24 45.16L37 38.16Z" fill="#292524" stroke="#0C0A09" stroke-width="3" stroke-linecap="round" stroke-linejoin="round"/>
<path d="M45.5 6C45.5 8.48528 43.4853 10.5 41 10.5C38.5147 10.5 36.5 8.48528 36.5 6C36.5 5.51729 36.6418 5.19562 36.8558 4.94025C37.0922 4.65798 37.4817 4.38377 38.0657 4.14959C39.2581 3.6714 40.9032 3.5 42.5 3.5C44.1812 3.5 44.7866 3.70716 45.0387 3.91491C45.1979 4.04617 45.5 4.42939 45.5 6Z" fill="#292524" stroke="#0C0A09" stroke-width="3"/>
<path d="M2.5 6C2.5 8.48528 4.51472 10.5 7 10.5C9.48528 10.5 11.5 8.48528 11.5 6C11.5 5.51729 11.3582 5.19562 11.1442 4.94025C10.9078 4.65798 10.5183 4.38377 9.93435 4.14959C8.74187 3.6714 7.09677 3.5 5.5 3.5C3.81876 3.5 3.21342 3.70716 2.96134 3.91491C2.80207 4.04617 2.5 4.42939 2.5 6Z" fill="#292524" stroke="#0C0A09" stroke-width="3"/>
<path d="M35.5485 21.5887C34.2714 22.2991 32.7898 23.0624 31.5262 23.6743C30.8944 23.9803 30.3214 24.2463 29.8586 24.448C29.3792 24.6569 29.0621 24.7771 28.9195 24.8145C28.1145 25.0255 27.1948 24.5058 26.9376 23.5249C26.6805 22.5441 27.2269 21.64 28.0318 21.4289C28.1734 21.3918 28.5096 21.3399 29.0311 21.2846C29.5345 21.2313 30.1666 21.1789 30.8692 21.1322C32.2745 21.0387 33.9429 20.9692 35.3968 20.9586C35.6762 20.9565 35.8423 21.0155 35.9246 21.0639C35.9649 21.0876 35.984 21.1078 35.9917 21.1175C35.9957 21.1226 35.9975 21.1258 35.9981 21.1272L35.9988 21.1286L35.9989 21.1289L35.999 21.1295L35.9992 21.1317C35.9992 21.1337 35.9992 21.1383 35.998 21.1456C35.9955 21.16 35.9877 21.1891 35.9628 21.2315C35.912 21.318 35.793 21.4527 35.5485 21.5887Z" fill="#FAFAF9" stroke="#0C0A09" stroke-width="1.5"/>
<path d="M11.8724 21.5887C13.1495 22.2991 14.6311 23.0624 15.8947 23.6743C16.5265 23.9803 17.0995 24.2463 17.5623 24.448C18.0417 24.6569 18.3588 24.7771 18.5014 24.8145C19.3064 25.0255 20.2261 24.5058 20.4833 23.5249C20.7404 22.5441 20.194 21.64 19.3891 21.4289C19.2474 21.3918 18.9113 21.3399 18.3898 21.2846C17.8864 21.2313 17.2543 21.1789 16.5517 21.1322C15.1464 21.0387 13.478 20.9692 12.0241 20.9586C11.7447 20.9565 11.5786 21.0155 11.4963 21.0639C11.456 21.0876 11.4369 21.1078 11.4292 21.1175C11.4252 21.1226 11.4234 21.1258 11.4227 21.1272L11.4221 21.1286L11.422 21.1289L11.4219 21.1295L11.4217 21.1317C11.4217 21.1337 11.4217 21.1383 11.4229 21.1456C11.4254 21.16 11.4332 21.1891 11.4581 21.2315C11.5089 21.318 11.6279 21.4527 11.8724 21.5887Z" fill="#FAFAF9" stroke="#0C0A09" stroke-width="1.5"/>
<path d="M25.366 33.5C24.9811 34.1667 24.0189 34.1667 23.634 33.5L22.3349 31.25C21.95 30.5833 22.4312 29.75 23.201 29.75L25.799 29.75C26.5688 29.75 27.05 30.5833 26.6651 31.25L25.366 33.5Z" fill="#292524" stroke="#0C0A09" stroke-width="2"/>
</svg>
